<?xml version="1.0" encoding="iso-8859-1"?>
<!-- Generator: Adobe Illustrator 22.1.0, SVG Export Plug-In . SVG Version: 6.00 Build 0)  -->
<svg version="1.1" id="&#x5716;&#x5C64;_1" xmlns="http://www.w3.org/2000/svg" xmlns:xlink="http://www.w3.org/1999/xlink" x="0px"
	 y="0px" viewBox="0 0 20 20" style="enable-background:new 0 0 20 20;" xml:space="preserve">
<g>
	<path style="fill:#AB875A;" d="M1.349,9.971c0-2.42,0.026-4.839-0.012-7.258C1.321,1.702,2.003,1.148,2.884,1.152
		c4.747,0.021,9.494,0.009,14.241,0.01c1.007,0,1.529,0.525,1.529,1.528c0.001,4.874-0.01,9.747,0.01,14.621
		c0.003,0.842-0.561,1.542-1.537,1.536c-4.758-0.028-9.517-0.027-14.275,0c-0.9,0.005-1.525-0.622-1.513-1.515
		C1.37,14.88,1.349,12.425,1.349,9.971z M17.85,10.025c0-1.648,0.002-3.297-0.002-4.945c-0.001-0.241,0.004-0.489-0.048-0.721
		c-0.281-1.274-1.36-2.128-2.691-2.13C11.767,2.224,8.424,2.24,5.082,2.222c-1.556-0.008-2.784,1.25-2.767,2.764
		c0.039,3.342,0.038,6.686-0.001,10.028c-0.015,1.334,1.01,2.78,2.796,2.771c3.308-0.016,6.616-0.013,9.924-0.001
		c1.651,0.006,2.875-1.283,2.827-2.814C17.811,13.323,17.85,11.673,17.85,10.025z"/>
	<path style="fill:#FCFBFB;" d="M17.85,10.025c0,1.648-0.039,3.298,0.011,4.945c0.047,1.531-1.176,2.82-2.827,2.814
		c-3.308-0.012-6.616-0.015-9.924,0.001c-1.785,0.009-2.811-1.437-2.796-2.771c0.039-3.342,0.039-6.686,0.001-10.028
		C2.298,3.472,3.526,2.213,5.082,2.222C8.424,2.24,11.767,2.224,15.11,2.229c1.331,0.002,2.409,0.856,2.691,2.13
		c0.051,0.233,0.047,0.48,0.048,0.721C17.852,6.728,17.85,8.377,17.85,10.025z M10.072,10.103c0.069,0,0.138,0,0.207,0
		c2.281,0,4.563,0.001,6.844-0.002c0.147,0,0.328,0.069,0.326-0.211c-0.011-1.659,0.025-3.319-0.023-4.977
		c-0.04-1.405-1.002-2.267-2.419-2.267c-3.261-0.002-6.522-0.002-9.783,0C3.655,2.647,2.743,3.549,2.735,5.122
		C2.727,6.678,2.74,8.233,2.727,9.789c-0.002,0.266,0.075,0.321,0.328,0.32C5.394,10.099,7.733,10.103,10.072,10.103z
		 M10.068,12.806c1.936,0,3.872,0.001,5.808-0.001c0.153,0,0.358,0.052,0.368-0.192c0.01-0.247-0.192-0.212-0.349-0.212
		c-3.872-0.001-7.744-0.001-11.617,0c-0.157,0-0.358-0.037-0.349,0.211c0.008,0.248,0.213,0.192,0.365,0.193
		C6.219,12.807,8.144,12.806,10.068,12.806z M7.444,15.253c0-0.415-0.004-0.83,0.002-1.244c0.002-0.148-0.019-0.225-0.2-0.233
		c-0.485-0.021-0.485-0.032-0.485,0.461c0,0.173,0.001,0.346,0,0.519c0,0.068,0.003,0.135-0.074,0.176
		c-0.257,0.137-0.553-0.028-0.554-0.311c-0.001-0.219-0.007-0.438,0.001-0.657c0.011-0.269-0.191-0.187-0.312-0.174
		c-0.126,0.013-0.358-0.139-0.358,0.161c-0.001,0.853,0,1.705-0.001,2.558c0,0.318,0.24,0.163,0.377,0.184
		c0.136,0.021,0.31,0.057,0.296-0.198c-0.016-0.276,0.016-0.555-0.009-0.829c-0.024-0.264,0.133-0.242,0.297-0.232
		c0.153,0.01,0.365-0.081,0.341,0.225c-0.02,0.263,0.018,0.532-0.01,0.794c-0.031,0.295,0.154,0.254,0.322,0.243
		c0.159-0.011,0.387,0.098,0.371-0.233C7.429,16.06,7.444,15.656,7.444,15.253z M14.604,15.222c-0.01-0.207-0.004-0.416-0.034-0.62
		c-0.05-0.343-0.107-0.696-0.513-0.819c-0.269-0.082-0.542-0.095-0.818-0.037c-0.34,0.072-0.53,0.27-0.599,0.621
		c-0.097,0.493-0.088,0.986-0.045,1.478c0.032,0.369,0.107,0.75,0.547,0.866c0.291,0.077,0.591,0.077,0.884-0.005
		c0.284-0.079,0.428-0.273,0.491-0.559C14.583,15.841,14.587,15.532,14.604,15.222z M12.105,15.266c0-0.426-0.013-0.852,0.005-1.276
		c0.012-0.285-0.182-0.214-0.32-0.202c-0.139,0.012-0.376-0.125-0.366,0.194c0.008,0.253-0.009,0.507,0.004,0.759
		c0.013,0.252-0.16,0.206-0.3,0.199c-0.141-0.007-0.346,0.084-0.335-0.201c0.011-0.253-0.011-0.507,0.006-0.759
		c0.017-0.259-0.162-0.21-0.295-0.193c-0.127,0.017-0.349-0.127-0.348,0.172c0.003,0.851,0.005,1.702-0.001,2.553
		c-0.002,0.296,0.212,0.17,0.341,0.181c0.129,0.011,0.315,0.078,0.302-0.187c-0.015-0.287-0.006-0.575-0.001-0.862
		c0.001-0.073-0.031-0.157,0.075-0.204c0.292-0.13,0.552,0.028,0.552,0.345c0,0.23,0.011,0.461-0.002,0.69
		c-0.019,0.338,0.229,0.204,0.381,0.22c0.154,0.016,0.321,0.05,0.306-0.221C12.089,16.072,12.105,15.669,12.105,15.266z
		 M7.88,15.246c-0.032,0.291,0.033,0.596,0.086,0.901c0.06,0.345,0.286,0.554,0.624,0.592c0.387,0.043,0.798,0.091,1.061-0.306
		c0.116-0.175,0.149-0.382,0.154-0.591c0.001-0.056,0.011-0.134-0.061-0.14c-0.182-0.014-0.372-0.042-0.547-0.006
		c-0.145,0.03-0.058,0.197-0.075,0.301c-0.021,0.127-0.018,0.262-0.194,0.273c-0.138,0.008-0.26-0.035-0.297-0.179
		c-0.144-0.566-0.142-1.134-0.003-1.701c0.032-0.13,0.154-0.172,0.268-0.178c0.123-0.006,0.2,0.107,0.196,0.203
		c-0.018,0.442,0.298,0.313,0.531,0.327c0.093,0.006,0.139-0.017,0.146-0.131c0.027-0.41-0.256-0.798-0.665-0.884
		c-0.528-0.111-0.989,0.109-1.113,0.543C7.902,14.581,7.863,14.9,7.88,15.246z"/>
	<path style="fill:#AB875A;" d="M10.072,10.103c-2.339,0-4.678-0.004-7.017,0.006c-0.254,0.001-0.331-0.055-0.328-0.32
		C2.74,8.233,2.727,6.678,2.735,5.122c0.008-1.573,0.92-2.475,2.491-2.476c3.261-0.002,6.522-0.002,9.783,0
		c1.417,0.001,2.379,0.863,2.419,2.267c0.047,1.658,0.012,3.318,0.023,4.977c0.002,0.28-0.18,0.211-0.326,0.211
		c-2.281,0.002-4.563,0.002-6.844,0.002C10.21,10.103,10.141,10.103,10.072,10.103z M7.457,6.67c0,0.679,0,1.359,0,2.038
		c0,0.136-0.033,0.278,0.192,0.275C8.375,8.975,9.101,8.981,9.826,8.98c0.066,0,0.132,0.004,0.172-0.077
		C10.14,8.61,9.967,8.312,9.65,8.311c-0.058,0-0.115,0.003-0.173-0.001c-0.363-0.024-0.862,0.16-1.053-0.074
		C8.243,8.013,8.384,7.534,8.363,7.168C8.351,6.963,8.43,6.915,8.619,6.923c0.333,0.014,0.668,0.006,1.002,0.002
		C9.704,6.924,9.797,6.958,9.836,6.82c0.108-0.39-0.015-0.572-0.408-0.573c-0.046,0-0.092,0.002-0.138,0
		C8.993,6.231,8.599,6.374,8.426,6.192C8.24,5.996,8.394,5.601,8.364,5.294c-0.02-0.21,0.074-0.249,0.259-0.243
		C8.991,5.064,9.36,5.039,9.728,5.06c0.302,0.017,0.232-0.183,0.226-0.339c-0.006-0.147,0.097-0.357-0.214-0.35
		c-0.679,0.016-1.359,0.012-2.038,0c-0.205-0.004-0.25,0.072-0.248,0.26C7.463,5.311,7.458,5.991,7.457,6.67z M11.365,5.544
		c0,0.97,0,1.89,0,2.809c0,0.64,0,0.63,0.633,0.632c0.225,0.001,0.293-0.06,0.291-0.29c-0.012-1.185-0.005-2.37-0.005-3.555
		c0-0.643-0.082-0.71-0.724-0.607c-0.087,0.014-0.148,0.053-0.203,0.114c-0.17,0.19-0.363,0.352-0.587,0.473
		c-0.103,0.056-0.152,0.123-0.147,0.243c0.008,0.192,0.002,0.384,0.002,0.602C10.916,5.889,11.087,5.672,11.365,5.544z"/>
	<path style="fill:#AB875A;" d="M10.068,12.806c-1.925,0-3.849,0.001-5.774-0.001c-0.152,0-0.357,0.055-0.365-0.193
		c-0.008-0.248,0.193-0.211,0.349-0.211c3.872-0.001,7.744-0.001,11.617,0c0.157,0,0.359-0.035,0.349,0.212
		c-0.01,0.244-0.215,0.192-0.368,0.192C13.941,12.807,12.005,12.806,10.068,12.806z"/>
	<path style="fill:#AB875A;" d="M7.444,15.253c0,0.403-0.015,0.807,0.005,1.21c0.016,0.331-0.212,0.223-0.371,0.233
		c-0.168,0.011-0.354,0.052-0.322-0.243c0.028-0.262-0.01-0.531,0.01-0.794c0.024-0.306-0.188-0.215-0.341-0.225
		c-0.164-0.011-0.321-0.033-0.297,0.232c0.025,0.274-0.007,0.553,0.009,0.829c0.015,0.255-0.159,0.218-0.296,0.198
		c-0.137-0.021-0.378,0.135-0.377-0.184c0.001-0.853,0-1.705,0.001-2.558c0.001-0.301,0.232-0.148,0.358-0.161
		c0.121-0.013,0.323-0.095,0.312,0.174c-0.009,0.219-0.002,0.438-0.001,0.657c0.001,0.283,0.297,0.448,0.554,0.311
		c0.077-0.041,0.073-0.108,0.074-0.176c0.001-0.173,0-0.346,0-0.519c0-0.493,0-0.482,0.485-0.461c0.182,0.008,0.203,0.085,0.2,0.233
		C7.44,14.423,7.444,14.838,7.444,15.253z"/>
	<path style="fill:#AB875A;" d="M14.604,15.222c-0.017,0.31-0.021,0.619-0.088,0.925c-0.063,0.285-0.207,0.48-0.491,0.559
		c-0.294,0.082-0.593,0.082-0.884,0.005c-0.44-0.116-0.515-0.497-0.547-0.866c-0.042-0.492-0.052-0.985,0.045-1.478
		c0.069-0.351,0.259-0.549,0.599-0.621c0.276-0.059,0.55-0.045,0.818,0.037c0.406,0.123,0.462,0.476,0.513,0.819
		C14.6,14.806,14.594,15.015,14.604,15.222z M13.936,15.259c-0.017-0.25-0.023-0.515-0.056-0.777
		c-0.02-0.157-0.117-0.28-0.297-0.276c-0.168,0.005-0.279,0.1-0.312,0.266c-0.1,0.513-0.108,1.027,0.004,1.539
		c0.034,0.158,0.123,0.266,0.31,0.262c0.189-0.004,0.272-0.122,0.293-0.279C13.91,15.756,13.917,15.514,13.936,15.259z"/>
	<path style="fill:#AB875A;" d="M12.105,15.266c0,0.403-0.016,0.806,0.006,1.207c0.015,0.271-0.153,0.237-0.306,0.221
		c-0.152-0.016-0.401,0.118-0.381-0.22c0.013-0.229,0.003-0.46,0.002-0.69c0-0.317-0.26-0.475-0.552-0.345
		c-0.107,0.047-0.074,0.131-0.075,0.204c-0.004,0.287-0.013,0.576,0.001,0.862c0.013,0.265-0.173,0.198-0.302,0.187
		c-0.129-0.011-0.343,0.116-0.341-0.181c0.006-0.851,0.004-1.702,0.001-2.553c-0.001-0.299,0.221-0.155,0.348-0.172
		c0.133-0.017,0.312-0.066,0.295,0.193c-0.016,0.252,0.005,0.506-0.006,0.759c-0.012,0.284,0.194,0.193,0.335,0.201
		c0.14,0.007,0.313,0.053,0.3-0.199c-0.013-0.252,0.004-0.506-0.004-0.759c-0.011-0.319,0.227-0.182,0.366-0.194
		c0.139-0.012,0.332-0.083,0.32,0.202C12.092,14.414,12.105,14.84,12.105,15.266z"/>
	<path style="fill:#AB875A;" d="M7.88,15.246c-0.017-0.346,0.021-0.665,0.11-0.975c0.124-0.434,0.585-0.655,1.113-0.543
		c0.408,0.086,0.692,0.473,0.665,0.884c-0.008,0.114-0.053,0.137-0.146,0.131c-0.234-0.014-0.549,0.115-0.531-0.327
		c0.004-0.096-0.073-0.209-0.196-0.203c-0.114,0.006-0.236,0.048-0.268,0.178c-0.139,0.566-0.141,1.135,0.003,1.701
		c0.037,0.144,0.159,0.187,0.297,0.179c0.176-0.01,0.173-0.145,0.194-0.273c0.017-0.104-0.07-0.271,0.075-0.301
		c0.175-0.036,0.365-0.008,0.547,0.006c0.072,0.006,0.063,0.083,0.061,0.14c-0.005,0.209-0.039,0.416-0.154,0.591
		c-0.263,0.397-0.674,0.349-1.061,0.306c-0.338-0.038-0.564-0.246-0.624-0.592C7.913,15.842,7.849,15.537,7.88,15.246z"/>
	<path style="fill:#F6F6F6;" d="M7.458,6.67c0-0.679,0.006-1.359-0.004-2.038c-0.003-0.188,0.043-0.264,0.248-0.26
		c0.679,0.012,1.359,0.015,2.038,0c0.311-0.007,0.209,0.203,0.214,0.35C9.96,4.877,10.029,5.078,9.728,5.06
		C9.36,5.039,8.991,5.064,8.623,5.052C8.438,5.046,8.344,5.084,8.364,5.294c0.03,0.306-0.124,0.701,0.062,0.898
		c0.173,0.182,0.567,0.039,0.863,0.055c0.046,0.003,0.092,0,0.138,0c0.393,0,0.516,0.183,0.408,0.573
		C9.797,6.958,9.704,6.924,9.621,6.925C9.287,6.929,8.953,6.936,8.619,6.923C8.43,6.915,8.351,6.963,8.363,7.168
		c0.021,0.366-0.12,0.846,0.062,1.069c0.191,0.234,0.689,0.05,1.053,0.074c0.057,0.004,0.115,0,0.173,0.001
		c0.317,0.001,0.49,0.299,0.348,0.591C9.959,8.984,9.892,8.98,9.826,8.98C9.101,8.981,8.375,8.975,7.65,8.984
		c-0.225,0.003-0.192-0.14-0.192-0.275C7.457,8.029,7.457,7.35,7.458,6.67z"/>
	<path style="fill:#F6F6F6;" d="M11.365,5.544c-0.278,0.128-0.449,0.345-0.739,0.423c0-0.218,0.006-0.41-0.002-0.602
		c-0.005-0.121,0.044-0.188,0.147-0.243c0.224-0.121,0.417-0.283,0.587-0.473c0.055-0.062,0.116-0.1,0.203-0.114
		c0.641-0.104,0.724-0.036,0.724,0.607c0,1.185-0.006,2.37,0.005,3.555c0.002,0.23-0.066,0.291-0.291,0.29
		c-0.633-0.003-0.633,0.007-0.633-0.632C11.365,7.434,11.365,6.515,11.365,5.544z"/>
	<path style="fill:#F6F6F6;" d="M13.936,15.259c-0.019,0.255-0.026,0.497-0.058,0.736c-0.021,0.157-0.104,0.275-0.293,0.279
		c-0.187,0.004-0.276-0.105-0.31-0.262c-0.112-0.512-0.104-1.026-0.004-1.539c0.033-0.166,0.144-0.262,0.312-0.266
		c0.18-0.005,0.277,0.118,0.297,0.276C13.913,14.744,13.919,15.009,13.936,15.259z"/>
</g>
</svg>
